<svg width="113" height="36" viewBox="0 0 113 36" fill="none" xmlns="http://www.w3.org/2000/svg">
<path d="M-0.448 25V24.136H9.6C11.072 24.136 12.4267 23.7733 13.664 23.048C14.9013 22.3013 15.968 21.256 16.864 19.912C17.7813 18.5467 18.4853 16.9467 18.976 15.112C19.488 13.2773 19.744 11.2613 19.744 9.064C19.744 7.72 19.616 6.57867 19.36 5.64C19.104 4.68 18.7093 3.912 18.176 3.336C17.6427 2.76 16.9707 2.344 16.16 2.088C15.3493 1.81067 14.4 1.672 13.312 1.672H4.384V0.872H13.312C15.5307 0.872 17.4187 1.27733 18.976 2.088C20.5547 2.89867 21.76 4.06133 22.592 5.576C23.424 7.09067 23.84 8.89333 23.84 10.984C23.84 12.968 23.4987 14.8133 22.816 16.52C22.1333 18.2267 21.1733 19.72 19.936 21C18.6987 22.2587 17.2373 23.24 15.552 23.944C13.8667 24.648 12.0107 25 9.984 25H-0.448ZM2.304 25L7.552 0.872H11.296L5.92 25H2.304ZM30.1015 25.416C29.2055 25.416 28.3842 25.1813 27.6375 24.712C26.8908 24.2213 26.2935 23.528 25.8455 22.632C25.3975 21.736 25.1735 20.68 25.1735 19.464C25.1735 18.2267 25.4082 17.0533 25.8775 15.944C26.3468 14.8347 26.9655 13.8533 27.7335 13C28.5228 12.1253 29.3975 11.4427 30.3575 10.952C31.3388 10.4613 32.3308 10.216 33.3335 10.216C34.3148 10.216 35.0402 10.44 35.5095 10.888C35.9788 11.336 36.3202 11.8907 36.5335 12.552H36.7255L36.0535 15.464C36.0748 15.2293 36.0962 15.0267 36.1175 14.856C36.1388 14.6853 36.1495 14.4933 36.1495 14.28C36.1495 13.3627 35.9148 12.616 35.4455 12.04C34.9975 11.4427 34.4215 11.144 33.7175 11.144C33.0775 11.144 32.4908 11.3893 31.9575 11.88C31.4455 12.3493 30.9868 12.9787 30.5815 13.768C30.1762 14.5573 29.8348 15.4107 29.5575 16.328C29.2802 17.224 29.0668 18.1093 28.9175 18.984C28.7895 19.8587 28.7255 20.616 28.7255 21.256C28.7255 22.28 28.8962 23.0587 29.2375 23.592C29.5788 24.1253 30.0802 24.392 30.7415 24.392C31.1895 24.392 31.6588 24.2533 32.1495 23.976C32.6402 23.6987 33.1308 23.208 33.6215 22.504C34.1335 21.8 34.6135 20.8187 35.0615 19.56L34.6775 22.76H34.4855C34.0162 23.6133 33.3868 24.2747 32.5975 24.744C31.8082 25.192 30.9762 25.416 30.1015 25.416ZM36.9175 25.416C36.5762 25.416 36.2242 25.32 35.8615 25.128C35.4988 24.9573 35.2002 24.6587 34.9655 24.232C34.7308 23.784 34.6135 23.176 34.6135 22.408C34.6135 22.088 34.6348 21.736 34.6775 21.352C34.7415 20.968 34.8268 20.5413 34.9335 20.072L37.1735 10.6H40.2775L37.9095 20.296C37.7602 20.9573 37.6428 21.5227 37.5575 21.992C37.4722 22.44 37.4295 22.8133 37.4295 23.112C37.4295 23.7307 37.6108 24.04 37.9735 24.04C38.3362 24.04 38.7842 23.72 39.3175 23.08C39.8722 22.4187 40.4162 21.448 40.9495 20.168L41.5895 20.456C41.2695 21.2453 40.8748 22.024 40.4055 22.792C39.9575 23.5387 39.4348 24.168 38.8375 24.68C38.2615 25.1707 37.6215 25.416 36.9175 25.416ZM41.6243 35.048C41.0269 35.048 40.5576 34.888 40.2163 34.568C39.8749 34.2693 39.7043 33.8853 39.7043 33.416C39.7043 33.0533 39.8216 32.7227 40.0563 32.424C40.2696 32.1253 40.5896 31.976 41.0163 31.976C41.3576 31.976 41.6243 32.0613 41.8163 32.232C42.0083 32.424 42.1576 32.6267 42.2643 32.84C42.3709 33.0747 42.4776 33.2773 42.5843 33.448C42.7123 33.64 42.8723 33.736 43.0643 33.736C43.4056 33.736 43.9069 33.416 44.5683 32.776C45.2296 32.136 45.9443 31.2293 46.7123 30.056C47.5016 28.8827 48.2269 27.5067 48.8883 25.928L49.9123 23.528L53.7523 12.2C54.0296 11.4107 54.3709 10.888 54.7763 10.632C55.1816 10.3547 55.5976 10.216 56.0243 10.216C56.6429 10.216 57.0483 10.3973 57.2403 10.76C57.4323 11.1013 57.5283 11.4213 57.5283 11.72C57.5283 12.1467 57.4003 12.5093 57.1443 12.808C56.8883 13.0853 56.5789 13.224 56.2163 13.224C55.9176 13.224 55.6936 13.16 55.5443 13.032C55.4163 12.8827 55.2456 12.808 55.0323 12.808C54.8829 12.808 54.7336 12.872 54.5843 13C54.4563 13.128 54.3283 13.3733 54.2003 13.736L50.9683 23.048C50.0723 25.672 49.0803 27.8693 47.9923 29.64C46.9256 31.432 45.8376 32.776 44.7283 33.672C43.6403 34.5893 42.6056 35.048 41.6243 35.048ZM48.7923 26.568L44.8243 13.256C44.6749 12.7867 44.5363 12.456 44.4083 12.264C44.3016 12.072 44.1523 11.976 43.9603 11.976C43.6403 11.976 43.3203 12.2427 43.0003 12.776C42.7016 13.3093 42.2536 14.2587 41.6563 15.624L41.0163 15.336C41.4216 14.312 41.8269 13.416 42.2323 12.648C42.6589 11.88 43.1389 11.2827 43.6723 10.856C44.2056 10.4293 44.8456 10.216 45.5923 10.216C46.1896 10.216 46.6803 10.3867 47.0643 10.728C47.4483 11.048 47.7683 11.6453 48.0243 12.52L50.6163 21.16H50.7443L51.0323 22.376L48.7923 26.568ZM60.4513 25.416C59.6619 25.416 59.0539 25.2133 58.6273 24.808C58.2006 24.4027 57.9873 23.8693 57.9873 23.208C57.9873 23.0373 57.9979 22.8667 58.0193 22.696C58.0619 22.5253 58.0939 22.3653 58.1153 22.216L63.2353 0.872H66.6593L61.4753 21.896C61.4113 22.1733 61.3686 22.3973 61.3473 22.568C61.3259 22.7387 61.3153 22.8773 61.3153 22.984C61.3153 23.5173 61.5499 23.784 62.0193 23.784C62.5739 23.784 63.1499 23.4747 63.7473 22.856C64.3659 22.2373 65.0593 21.1813 65.8273 19.688L66.4673 19.976C66.0406 20.872 65.5393 21.736 64.9633 22.568C64.3873 23.4 63.7259 24.0827 62.9793 24.616C62.2539 25.1493 61.4113 25.416 60.4513 25.416ZM60.0353 1.672V0.872H66.2753V1.672H60.0353ZM74.0263 25.416C72.7036 25.416 71.5409 25.1067 70.5383 24.488C69.5356 23.8693 68.7569 23.0693 68.2023 22.088C67.6689 21.0853 67.4023 20.0293 67.4023 18.92C67.4023 17.832 67.6476 16.776 68.1383 15.752C68.6503 14.7067 69.3223 13.768 70.1543 12.936C71.0076 12.104 71.9676 11.4427 73.0343 10.952C74.1009 10.4613 75.1889 10.216 76.2983 10.216C77.1943 10.216 77.9836 10.376 78.6663 10.696C79.3489 11.016 79.8823 11.464 80.2663 12.04C80.6716 12.5947 80.8743 13.2453 80.8743 13.992C80.8743 14.888 80.5863 15.6773 80.0103 16.36C79.4343 17.0427 78.6449 17.576 77.6423 17.96C76.6396 18.3227 75.4876 18.504 74.1863 18.504C73.6956 18.504 73.1836 18.4827 72.6503 18.44C72.1169 18.3973 71.6369 18.344 71.2103 18.28C70.8049 18.216 70.5276 18.1733 70.3783 18.152L70.5383 17.352C70.9009 17.5013 71.2743 17.5973 71.6583 17.64C72.0423 17.6613 72.4476 17.672 72.8743 17.672C74.1543 17.672 75.1676 17.48 75.9143 17.096C76.6823 16.712 77.2263 16.2107 77.5463 15.592C77.8876 14.9733 78.0583 14.3013 78.0583 13.576C78.0583 12.7227 77.8769 12.1147 77.5143 11.752C77.1516 11.368 76.6716 11.176 76.0743 11.176C75.2849 11.176 74.5809 11.4747 73.9623 12.072C73.3649 12.648 72.8636 13.4053 72.4583 14.344C72.0529 15.2613 71.7436 16.2427 71.5303 17.288C71.3383 18.3333 71.2423 19.3253 71.2423 20.264C71.2423 21.6933 71.4876 22.7493 71.9783 23.432C72.4689 24.1147 73.2583 24.456 74.3463 24.456C75.2209 24.456 76.1489 24.1893 77.1303 23.656C78.1116 23.1227 79.0289 22.152 79.8823 20.744L80.5223 21.192C79.8396 22.4293 78.9649 23.4427 77.8983 24.232C76.8316 25.0213 75.5409 25.416 74.0263 25.416ZM93.1565 25.416C92.4098 25.416 91.8125 25.2133 91.3645 24.808C90.9378 24.4027 90.7245 23.8693 90.7245 23.208C90.7245 23.0373 90.7352 22.8667 90.7565 22.696C90.7992 22.5253 90.8312 22.3653 90.8525 22.216L92.9325 13.512C92.9752 13.3413 93.0072 13.192 93.0285 13.064C93.0498 12.936 93.0605 12.7973 93.0605 12.648C93.0605 12.264 92.9538 11.9867 92.7405 11.816C92.5272 11.6453 92.2392 11.56 91.8765 11.56C91.4072 11.56 90.9058 11.7093 90.3725 12.008C89.8605 12.2853 89.3592 12.6907 88.8685 13.224C88.3778 13.7573 87.9298 14.3867 87.5245 15.112C87.1405 15.8373 86.8312 16.6373 86.5965 17.512L87.4925 13.448H87.7165C88.3565 12.616 89.1565 11.8693 90.1165 11.208C91.0978 10.5467 92.1752 10.216 93.3485 10.216C94.1592 10.216 94.8525 10.4187 95.4285 10.824C96.0258 11.2293 96.3245 11.8907 96.3245 12.808C96.3245 13.2133 96.2605 13.6933 96.1325 14.248L94.2125 21.896C94.1485 22.1733 94.1058 22.3973 94.0845 22.568C94.0632 22.7387 94.0525 22.8773 94.0525 22.984C94.0525 23.5173 94.2872 23.784 94.7565 23.784C95.2258 23.784 95.7272 23.4747 96.2605 22.856C96.8152 22.2373 97.4232 21.1813 98.0845 19.688L98.7245 19.976C98.3192 20.9147 97.8498 21.8 97.3165 22.632C96.7832 23.464 96.1752 24.136 95.4925 24.648C94.8098 25.16 94.0312 25.416 93.1565 25.416ZM81.4445 25L84.8685 10.6H88.2925L84.7405 25H81.4445ZM81.8605 11.4V10.6H87.9085V11.4H81.8605ZM105.559 25.416C104.236 25.416 103.073 25.1067 102.071 24.488C101.068 23.8693 100.289 23.0693 99.7348 22.088C99.2014 21.0853 98.9348 20.0293 98.9348 18.92C98.9348 17.832 99.1801 16.776 99.6708 15.752C100.183 14.7067 100.855 13.768 101.687 12.936C102.54 12.104 103.5 11.4427 104.567 10.952C105.633 10.4613 106.721 10.216 107.831 10.216C108.727 10.216 109.516 10.376 110.199 10.696C110.881 11.016 111.415 11.464 111.799 12.04C112.204 12.5947 112.407 13.2453 112.407 13.992C112.407 14.888 112.119 15.6773 111.543 16.36C110.967 17.0427 110.177 17.576 109.175 17.96C108.172 18.3227 107.02 18.504 105.719 18.504C105.228 18.504 104.716 18.4827 104.183 18.44C103.649 18.3973 103.169 18.344 102.743 18.28C102.337 18.216 102.06 18.1733 101.911 18.152L102.071 17.352C102.433 17.5013 102.807 17.5973 103.191 17.64C103.575 17.6613 103.98 17.672 104.407 17.672C105.687 17.672 106.7 17.48 107.447 17.096C108.215 16.712 108.759 16.2107 109.079 15.592C109.42 14.9733 109.591 14.3013 109.591 13.576C109.591 12.7227 109.409 12.1147 109.047 11.752C108.684 11.368 108.204 11.176 107.607 11.176C106.817 11.176 106.113 11.4747 105.495 12.072C104.897 12.648 104.396 13.4053 103.991 14.344C103.585 15.2613 103.276 16.2427 103.063 17.288C102.871 18.3333 102.775 19.3253 102.775 20.264C102.775 21.6933 103.02 22.7493 103.511 23.432C104.001 24.1147 104.791 24.456 105.879 24.456C106.753 24.456 107.681 24.1893 108.663 23.656C109.644 23.1227 110.561 22.152 111.415 20.744L112.055 21.192C111.372 22.4293 110.497 23.4427 109.431 24.232C108.364 25.0213 107.073 25.416 105.559 25.416Z" fill="#3D2B27"/>
</svg>
